<svg width="111" height="111" viewBox="0 0 111 111" fill="none" xmlns="http://www.w3.org/2000/svg">
<g opacity="0.5">
<g clip-path="url(#clip0_180_2134)">
<path d="M66.6 66.6L44.4 44.4" stroke="#FF3400" stroke-width="7" stroke-linecap="round" stroke-linejoin="round"/>
<path d="M86.2886 99.3681C84.5541 101.103 82.2015 102.078 79.7482 102.079C77.2948 102.079 74.9418 101.105 73.2068 99.3704C71.4717 97.636 70.4967 95.2833 70.4963 92.83C70.4959 90.3767 71.47 88.0237 73.2045 86.2886L65.0321 94.4656C63.297 96.2007 60.9438 97.1754 58.49 97.1754C56.0363 97.1754 53.683 96.2007 51.948 94.4656C50.2129 92.7305 49.2382 90.3773 49.2382 87.9235C49.2382 85.4698 50.2129 83.1165 51.948 81.3815L81.3815 51.948C83.1165 50.2129 85.4698 49.2382 87.9235 49.2382C90.3773 49.2382 92.7305 50.2129 94.4656 51.948C96.2007 53.683 97.1754 56.0363 97.1754 58.49C97.1754 60.9438 96.2007 63.297 94.4656 65.0321L86.2886 73.2045C88.0237 71.47 90.3767 70.4959 92.83 70.4963C95.2833 70.4967 97.636 71.4717 99.3704 73.2068C101.105 74.9418 102.079 77.2948 102.079 79.7482C102.078 82.2015 101.103 84.5541 99.3681 86.2886L86.2886 99.3681Z" stroke="#FF3400" stroke-width="7" stroke-linecap="round" stroke-linejoin="round"/>
<path d="M99.4375 99.4375L92.9625 92.9625" stroke="#FF3400" stroke-width="7" stroke-linecap="round" stroke-linejoin="round"/>
<path d="M18.0375 18.0375L11.5625 11.5625" stroke="#FF3400" stroke-width="7" stroke-linecap="round" stroke-linejoin="round"/>
<path d="M29.6185 59.052C27.8834 60.7871 25.5302 61.7618 23.0764 61.7618C20.6227 61.7618 18.2694 60.7871 16.5344 59.052C14.7993 57.3169 13.8246 54.9637 13.8246 52.5099C13.8246 50.0562 14.7993 47.7029 16.5344 45.9679L24.7114 37.7955C23.8523 38.6543 22.8324 39.3355 21.71 39.8002C20.5877 40.2648 19.3847 40.5039 18.17 40.5037C15.7167 40.5032 13.364 39.5283 11.6296 37.7932C10.7707 36.9341 10.0896 35.9142 9.62489 34.7918C9.16022 33.6695 8.92117 32.4666 8.92139 31.2518C8.92182 28.7985 9.89681 26.4458 11.6319 24.7114L24.7114 11.6319C26.4458 9.89681 28.7985 8.92182 31.2518 8.92139C32.4666 8.92117 33.6695 9.16022 34.7918 9.62489C35.9142 10.0896 36.9341 10.7707 37.7932 11.6296C38.6523 12.4884 39.3339 13.508 39.7989 14.6302C40.264 15.7524 40.5035 16.9552 40.5037 18.17C40.5039 19.3847 40.2648 20.5877 39.8002 21.71C39.3355 22.8324 38.6543 23.8523 37.7955 24.7114L45.9679 16.5344C47.7029 14.7993 50.0562 13.8246 52.5099 13.8246C54.9637 13.8246 57.3169 14.7993 59.052 16.5344C60.7871 18.2694 61.7618 20.6227 61.7618 23.0764C61.7618 25.5302 60.7871 27.8834 59.052 29.6185L29.6185 59.052Z" stroke="#FF3400" stroke-width="7" stroke-linecap="round" stroke-linejoin="round"/>
<path d="M27.1161 87.3707C28.1055 86.3706 28.1055 84.7464 27.1161 83.7463C26.1268 82.7462 24.5201 82.7462 23.5307 83.7463L15.1964 92.1792L6.85421 83.7543C5.86486 82.7542 4.25816 82.7542 3.26881 83.7543C2.27946 84.7544 2.27946 86.3786 3.26881 87.3787L11.611 95.8036L3.27672 104.236C2.28737 105.237 2.28737 106.861 3.27672 107.861C4.26607 108.861 5.87278 108.861 6.86213 107.861L15.1964 99.4279L23.5386 107.853C24.528 108.853 26.1347 108.853 27.124 107.853C28.1134 106.853 28.1134 105.229 27.124 104.228L18.7818 95.8036L27.1161 87.3707Z" fill="#18FF13"/>
</g>
</g>
<defs>
<clipPath id="clip0_180_2134">
<rect width="111" height="111" fill="white"/>
</clipPath>
</defs>
</svg>
